<mxfile host="app.diagrams.net" agent="Mozilla/5.0 (Windows NT 10.0; Win64; x64) AppleWebKit/537.36 (KHTML, like Gecko) Chrome/136.0.0.0 Safari/537.36" version="27.0.6">
  <diagram name="페이지-1" id="acbt0nLhAi-fUhKICGcB">
    <mxGraphModel dx="1685" dy="741" grid="1" gridSize="10" guides="1" tooltips="1" connect="1" arrows="1" fold="1" page="1" pageScale="1" pageWidth="827" pageHeight="1169" math="0" shadow="0">
      <root>
        <mxCell id="0" />
        <mxCell id="1" parent="0" />
        <mxCell id="moP1IjQAJDg3BQziUJU6-2" value="&lt;font style=&quot;font-size: 11px;&quot;&gt;&lt;b&gt;sd &lt;/b&gt;&lt;font style=&quot;&quot;&gt;회원 가입&lt;/font&gt;&lt;/font&gt;" style="shape=umlFrame;whiteSpace=wrap;html=1;pointerEvents=0;width=110;height=30;" parent="1" vertex="1">
          <mxGeometry x="10" y="30" width="870" height="360" as="geometry" />
        </mxCell>
        <mxCell id="moP1IjQAJDg3BQziUJU6-4" value="&lt;b&gt;:SignUp&lt;/b&gt;" style="html=1;whiteSpace=wrap;" parent="1" vertex="1">
          <mxGeometry x="490" y="170" width="110" height="50" as="geometry" />
        </mxCell>
        <mxCell id="moP1IjQAJDg3BQziUJU6-5" value="&lt;b&gt;:SignUpUI&lt;/b&gt;" style="html=1;whiteSpace=wrap;" parent="1" vertex="1">
          <mxGeometry x="240" y="169" width="110" height="50" as="geometry" />
        </mxCell>
        <mxCell id="moP1IjQAJDg3BQziUJU6-6" value="&lt;b&gt;:회원&lt;/b&gt;" style="shape=umlActor;verticalLabelPosition=bottom;verticalAlign=top;html=1;" parent="1" vertex="1">
          <mxGeometry x="40" y="160" width="30" height="60" as="geometry" />
        </mxCell>
        <mxCell id="moP1IjQAJDg3BQziUJU6-9" value="" style="line;strokeWidth=1;fillColor=none;align=left;verticalAlign=middle;spacingTop=-1;spacingLeft=3;spacingRight=3;rotatable=0;labelPosition=right;points=[];portConstraint=eastwest;strokeColor=inherit;" parent="1" vertex="1">
          <mxGeometry x="70" y="190" width="170" height="8" as="geometry" />
        </mxCell>
        <mxCell id="moP1IjQAJDg3BQziUJU6-10" value="" style="line;strokeWidth=1;fillColor=none;align=left;verticalAlign=middle;spacingTop=-1;spacingLeft=3;spacingRight=3;rotatable=0;labelPosition=right;points=[];portConstraint=eastwest;strokeColor=inherit;" parent="1" vertex="1">
          <mxGeometry x="350" y="191" width="140" height="8" as="geometry" />
        </mxCell>
        <mxCell id="moP1IjQAJDg3BQziUJU6-14" value="&lt;b&gt;1: submitSignUpInfo()&lt;/b&gt;" style="html=1;verticalAlign=bottom;endArrow=block;curved=0;rounded=0;" parent="1" edge="1">
          <mxGeometry y="8" width="80" relative="1" as="geometry">
            <mxPoint x="120" y="168" as="sourcePoint" />
            <mxPoint x="200" y="168" as="targetPoint" />
            <mxPoint as="offset" />
          </mxGeometry>
        </mxCell>
        <mxCell id="moP1IjQAJDg3BQziUJU6-16" value="&lt;b&gt;1.1: signUp()&lt;/b&gt;" style="html=1;verticalAlign=bottom;endArrow=block;curved=0;rounded=0;" parent="1" edge="1">
          <mxGeometry y="10" width="80" relative="1" as="geometry">
            <mxPoint x="380" y="170" as="sourcePoint" />
            <mxPoint x="460" y="170" as="targetPoint" />
            <mxPoint as="offset" />
          </mxGeometry>
        </mxCell>
        <mxCell id="moP1IjQAJDg3BQziUJU6-17" value="&lt;b&gt;newMember:Member&lt;/b&gt;" style="html=1;whiteSpace=wrap;" parent="1" vertex="1">
          <mxGeometry x="660" y="310" width="160" height="50" as="geometry" />
        </mxCell>
        <mxCell id="moP1IjQAJDg3BQziUJU6-27" value="" style="endArrow=none;html=1;rounded=0;exitX=0.5;exitY=0;exitDx=0;exitDy=0;" parent="1" source="kKvPtTwiiA1jm8snr2tL-1" edge="1">
          <mxGeometry width="50" height="50" relative="1" as="geometry">
            <mxPoint x="544.5" y="309" as="sourcePoint" />
            <mxPoint x="544.5" y="219" as="targetPoint" />
          </mxGeometry>
        </mxCell>
        <mxCell id="nvlYyYwGG8XTySucCO5U-1" value="&lt;b&gt;sd&lt;/b&gt; 로그인" style="shape=umlFrame;whiteSpace=wrap;html=1;pointerEvents=0;width=90;height=20;" parent="1" vertex="1">
          <mxGeometry x="10" y="410" width="870" height="310" as="geometry" />
        </mxCell>
        <mxCell id="nvlYyYwGG8XTySucCO5U-2" value="&lt;b&gt;:Login&lt;/b&gt;" style="html=1;whiteSpace=wrap;" parent="1" vertex="1">
          <mxGeometry x="510" y="470" width="110" height="50" as="geometry" />
        </mxCell>
        <mxCell id="nvlYyYwGG8XTySucCO5U-3" value="&lt;b&gt;:LoginUI&lt;/b&gt;" style="html=1;whiteSpace=wrap;" parent="1" vertex="1">
          <mxGeometry x="260" y="469" width="110" height="50" as="geometry" />
        </mxCell>
        <mxCell id="nvlYyYwGG8XTySucCO5U-4" value="&lt;b&gt;:유저&lt;/b&gt;" style="shape=umlActor;verticalLabelPosition=bottom;verticalAlign=top;html=1;" parent="1" vertex="1">
          <mxGeometry x="60" y="460" width="30" height="60" as="geometry" />
        </mxCell>
        <mxCell id="nvlYyYwGG8XTySucCO5U-5" value="" style="line;strokeWidth=1;fillColor=none;align=left;verticalAlign=middle;spacingTop=-1;spacingLeft=3;spacingRight=3;rotatable=0;labelPosition=right;points=[];portConstraint=eastwest;strokeColor=inherit;" parent="1" vertex="1">
          <mxGeometry x="90" y="490" width="170" height="8" as="geometry" />
        </mxCell>
        <mxCell id="nvlYyYwGG8XTySucCO5U-6" value="" style="line;strokeWidth=1;fillColor=none;align=left;verticalAlign=middle;spacingTop=-1;spacingLeft=3;spacingRight=3;rotatable=0;labelPosition=right;points=[];portConstraint=eastwest;strokeColor=inherit;" parent="1" vertex="1">
          <mxGeometry x="370" y="491" width="140" height="8" as="geometry" />
        </mxCell>
        <mxCell id="nvlYyYwGG8XTySucCO5U-8" value="&lt;b&gt;1: submitLoginInfo()&lt;/b&gt;" style="html=1;verticalAlign=bottom;endArrow=block;curved=0;rounded=0;" parent="1" edge="1">
          <mxGeometry y="8" width="80" relative="1" as="geometry">
            <mxPoint x="140" y="468" as="sourcePoint" />
            <mxPoint x="220" y="468" as="targetPoint" />
            <mxPoint as="offset" />
          </mxGeometry>
        </mxCell>
        <mxCell id="nvlYyYwGG8XTySucCO5U-9" value="&lt;b&gt;1.1: login()&lt;/b&gt;" style="html=1;verticalAlign=bottom;endArrow=block;curved=0;rounded=0;" parent="1" edge="1">
          <mxGeometry y="10" width="80" relative="1" as="geometry">
            <mxPoint x="400" y="470" as="sourcePoint" />
            <mxPoint x="480" y="470" as="targetPoint" />
            <mxPoint as="offset" />
          </mxGeometry>
        </mxCell>
        <mxCell id="nvlYyYwGG8XTySucCO5U-17" value="&lt;b&gt;:Logout&lt;/b&gt;" style="html=1;whiteSpace=wrap;" parent="1" vertex="1">
          <mxGeometry x="520" y="801" width="110" height="50" as="geometry" />
        </mxCell>
        <mxCell id="nvlYyYwGG8XTySucCO5U-18" value="&lt;b&gt;:LogoutUI&lt;/b&gt;" style="html=1;whiteSpace=wrap;" parent="1" vertex="1">
          <mxGeometry x="270" y="800" width="110" height="50" as="geometry" />
        </mxCell>
        <mxCell id="nvlYyYwGG8XTySucCO5U-19" value="&lt;b&gt;:유저&lt;/b&gt;" style="shape=umlActor;verticalLabelPosition=bottom;verticalAlign=top;html=1;" parent="1" vertex="1">
          <mxGeometry x="70" y="791" width="30" height="60" as="geometry" />
        </mxCell>
        <mxCell id="nvlYyYwGG8XTySucCO5U-20" value="" style="line;strokeWidth=1;fillColor=none;align=left;verticalAlign=middle;spacingTop=-1;spacingLeft=3;spacingRight=3;rotatable=0;labelPosition=right;points=[];portConstraint=eastwest;strokeColor=inherit;" parent="1" vertex="1">
          <mxGeometry x="100" y="821" width="170" height="8" as="geometry" />
        </mxCell>
        <mxCell id="nvlYyYwGG8XTySucCO5U-21" value="" style="line;strokeWidth=1;fillColor=none;align=left;verticalAlign=middle;spacingTop=-1;spacingLeft=3;spacingRight=3;rotatable=0;labelPosition=right;points=[];portConstraint=eastwest;strokeColor=inherit;" parent="1" vertex="1">
          <mxGeometry x="380" y="822" width="140" height="8" as="geometry" />
        </mxCell>
        <mxCell id="nvlYyYwGG8XTySucCO5U-25" value="&lt;b&gt;sd &lt;/b&gt;로그아웃" style="shape=umlFrame;whiteSpace=wrap;html=1;pointerEvents=0;width=90;height=30;" parent="1" vertex="1">
          <mxGeometry x="10" y="740" width="810" height="300" as="geometry" />
        </mxCell>
        <mxCell id="nvlYyYwGG8XTySucCO5U-26" value="&lt;font style=&quot;font-size: 11px;&quot;&gt;&lt;b&gt;sd &lt;/b&gt;&lt;font style=&quot;&quot;&gt;자전거 정보 등록&lt;/font&gt;&lt;/font&gt;" style="shape=umlFrame;whiteSpace=wrap;html=1;pointerEvents=0;width=140;height=30;" parent="1" vertex="1">
          <mxGeometry x="10" y="1060" width="830" height="360" as="geometry" />
        </mxCell>
        <mxCell id="nvlYyYwGG8XTySucCO5U-27" value="&lt;b&gt;:AddBicycle&lt;/b&gt;" style="html=1;whiteSpace=wrap;" parent="1" vertex="1">
          <mxGeometry x="500" y="1182" width="110" height="50" as="geometry" />
        </mxCell>
        <mxCell id="nvlYyYwGG8XTySucCO5U-28" value="&lt;b&gt;:AddBicycleUI&lt;/b&gt;" style="html=1;whiteSpace=wrap;" parent="1" vertex="1">
          <mxGeometry x="250" y="1181" width="110" height="50" as="geometry" />
        </mxCell>
        <mxCell id="nvlYyYwGG8XTySucCO5U-29" value="" style="line;strokeWidth=1;fillColor=none;align=left;verticalAlign=middle;spacingTop=-1;spacingLeft=3;spacingRight=3;rotatable=0;labelPosition=right;points=[];portConstraint=eastwest;strokeColor=inherit;" parent="1" vertex="1">
          <mxGeometry x="80" y="1202" width="170" height="8" as="geometry" />
        </mxCell>
        <mxCell id="nvlYyYwGG8XTySucCO5U-30" value="" style="line;strokeWidth=1;fillColor=none;align=left;verticalAlign=middle;spacingTop=-1;spacingLeft=3;spacingRight=3;rotatable=0;labelPosition=right;points=[];portConstraint=eastwest;strokeColor=inherit;" parent="1" vertex="1">
          <mxGeometry x="360" y="1203" width="140" height="8" as="geometry" />
        </mxCell>
        <mxCell id="nvlYyYwGG8XTySucCO5U-32" value="&lt;b&gt;1: submitBicycleInfo()&lt;/b&gt;" style="html=1;verticalAlign=bottom;endArrow=block;curved=0;rounded=0;" parent="1" edge="1">
          <mxGeometry y="10" width="80" relative="1" as="geometry">
            <mxPoint x="130" y="1180" as="sourcePoint" />
            <mxPoint x="210" y="1180" as="targetPoint" />
            <mxPoint as="offset" />
          </mxGeometry>
        </mxCell>
        <mxCell id="nvlYyYwGG8XTySucCO5U-33" value="&lt;b&gt;1.1: addNewBicycle()&lt;/b&gt;" style="html=1;verticalAlign=bottom;endArrow=block;curved=0;rounded=0;" parent="1" edge="1">
          <mxGeometry y="12" width="80" relative="1" as="geometry">
            <mxPoint x="390" y="1182" as="sourcePoint" />
            <mxPoint x="470" y="1182" as="targetPoint" />
            <mxPoint as="offset" />
          </mxGeometry>
        </mxCell>
        <mxCell id="nvlYyYwGG8XTySucCO5U-34" value="" style="endArrow=none;html=1;rounded=0;exitX=0;exitY=0.5;exitDx=0;exitDy=0;entryX=1;entryY=0.5;entryDx=0;entryDy=0;" parent="1" edge="1" target="kKvPtTwiiA1jm8snr2tL-13" source="nvlYyYwGG8XTySucCO5U-37">
          <mxGeometry width="50" height="50" relative="1" as="geometry">
            <mxPoint x="530.0000000000002" y="1481.8000000000002" as="sourcePoint" />
            <mxPoint x="463.7" y="1370" as="targetPoint" />
          </mxGeometry>
        </mxCell>
        <mxCell id="nvlYyYwGG8XTySucCO5U-35" value="&lt;b&gt;1.1.1.1: Bicycle()&lt;/b&gt;" style="html=1;verticalAlign=bottom;endArrow=block;curved=0;rounded=0;" parent="1" edge="1">
          <mxGeometry y="10" width="80" relative="1" as="geometry">
            <mxPoint x="480" y="1360" as="sourcePoint" />
            <mxPoint x="580" y="1360" as="targetPoint" />
            <mxPoint as="offset" />
          </mxGeometry>
        </mxCell>
        <mxCell id="nvlYyYwGG8XTySucCO5U-36" value="&lt;b&gt;:관리자&lt;/b&gt;" style="shape=umlActor;verticalLabelPosition=bottom;verticalAlign=top;html=1;" parent="1" vertex="1">
          <mxGeometry x="40" y="1171" width="30" height="60" as="geometry" />
        </mxCell>
        <mxCell id="nvlYyYwGG8XTySucCO5U-37" value="&lt;b&gt;newBicycle:Bicycle&lt;/b&gt;" style="html=1;whiteSpace=wrap;" parent="1" vertex="1">
          <mxGeometry x="587.5" y="1350" width="160" height="50" as="geometry" />
        </mxCell>
        <mxCell id="nvlYyYwGG8XTySucCO5U-38" value="&lt;font style=&quot;font-size: 11px;&quot;&gt;&lt;b&gt;sd &lt;/b&gt;&lt;font style=&quot;&quot;&gt;자전거 대여 정보 조회&lt;/font&gt;&lt;/font&gt;" style="shape=umlFrame;whiteSpace=wrap;html=1;pointerEvents=0;width=180;height=20;" parent="1" vertex="1">
          <mxGeometry x="10" y="1440" width="1170" height="360" as="geometry" />
        </mxCell>
        <mxCell id="nvlYyYwGG8XTySucCO5U-39" value="&lt;b&gt;:ShowBicycleRentalInfo&lt;/b&gt;" style="html=1;whiteSpace=wrap;" parent="1" vertex="1">
          <mxGeometry x="540" y="1554.5" width="190" height="50" as="geometry" />
        </mxCell>
        <mxCell id="nvlYyYwGG8XTySucCO5U-40" value="&lt;b&gt;:ShowBicycleRentalInfoUI&lt;/b&gt;" style="html=1;whiteSpace=wrap;" parent="1" vertex="1">
          <mxGeometry x="224" y="1554" width="190" height="50" as="geometry" />
        </mxCell>
        <mxCell id="nvlYyYwGG8XTySucCO5U-41" value="" style="line;strokeWidth=1;fillColor=none;align=left;verticalAlign=middle;spacingTop=-1;spacingLeft=3;spacingRight=3;rotatable=0;labelPosition=right;points=[];portConstraint=eastwest;strokeColor=inherit;" parent="1" vertex="1">
          <mxGeometry x="80" y="1575" width="140" height="8" as="geometry" />
        </mxCell>
        <mxCell id="nvlYyYwGG8XTySucCO5U-42" value="" style="line;strokeWidth=1;fillColor=none;align=left;verticalAlign=middle;spacingTop=-1;spacingLeft=3;spacingRight=3;rotatable=0;labelPosition=right;points=[];portConstraint=eastwest;strokeColor=inherit;" parent="1" vertex="1">
          <mxGeometry x="414" y="1575.5" width="126" height="8" as="geometry" />
        </mxCell>
        <mxCell id="nvlYyYwGG8XTySucCO5U-43" value="&lt;b&gt;4: startInterface()&lt;/b&gt;" style="html=1;verticalAlign=bottom;endArrow=block;curved=0;rounded=0;" parent="1" edge="1">
          <mxGeometry x="-0.15" y="31" width="80" relative="1" as="geometry">
            <mxPoint x="514" y="1592" as="sourcePoint" />
            <mxPoint x="434" y="1592" as="targetPoint" />
            <mxPoint as="offset" />
          </mxGeometry>
        </mxCell>
        <mxCell id="nvlYyYwGG8XTySucCO5U-46" value="" style="endArrow=none;html=1;rounded=0;exitX=0.5;exitY=0;exitDx=0;exitDy=0;entryX=1;entryY=0.75;entryDx=0;entryDy=0;" parent="1" edge="1" target="nvlYyYwGG8XTySucCO5U-39">
          <mxGeometry width="50" height="50" relative="1" as="geometry">
            <mxPoint x="944.66" y="1704.5" as="sourcePoint" />
            <mxPoint x="944.66" y="1604.5" as="targetPoint" />
          </mxGeometry>
        </mxCell>
        <mxCell id="nvlYyYwGG8XTySucCO5U-47" value="&lt;b&gt;3: *[for all bicycles] : getBicycleDetail()&lt;/b&gt;" style="html=1;verticalAlign=bottom;endArrow=block;curved=0;rounded=0;" parent="1" edge="1">
          <mxGeometry x="1" y="113" width="80" relative="1" as="geometry">
            <mxPoint x="820" y="1610" as="sourcePoint" />
            <mxPoint x="900" y="1654.5" as="targetPoint" />
            <mxPoint x="55" y="74" as="offset" />
          </mxGeometry>
        </mxCell>
        <mxCell id="nvlYyYwGG8XTySucCO5U-48" value="&lt;b&gt;:회원&lt;/b&gt;" style="shape=umlActor;verticalLabelPosition=bottom;verticalAlign=top;html=1;" parent="1" vertex="1">
          <mxGeometry x="40" y="1544" width="30" height="60" as="geometry" />
        </mxCell>
        <mxCell id="nvlYyYwGG8XTySucCO5U-49" value="&lt;b&gt;:Bicycle&lt;/b&gt;" style="html=1;whiteSpace=wrap;" parent="1" vertex="1">
          <mxGeometry x="877.5" y="1703" width="135" height="50" as="geometry" />
        </mxCell>
        <mxCell id="4MyRHnNNQHZquPPOq6WB-30" value="&lt;font style=&quot;font-size: 11px;&quot;&gt;&lt;b&gt;sd &lt;/b&gt;&lt;font style=&quot;&quot;&gt;자전거 대여&lt;/font&gt;&lt;/font&gt;" style="shape=umlFrame;whiteSpace=wrap;html=1;pointerEvents=0;width=180;height=20;" parent="1" vertex="1">
          <mxGeometry x="10" y="1820" width="1170" height="360" as="geometry" />
        </mxCell>
        <mxCell id="4MyRHnNNQHZquPPOq6WB-31" value="&lt;b&gt;:RentBicycle&lt;/b&gt;" style="html=1;whiteSpace=wrap;" parent="1" vertex="1">
          <mxGeometry x="587.5" y="1930" width="190" height="50" as="geometry" />
        </mxCell>
        <mxCell id="4MyRHnNNQHZquPPOq6WB-32" value="&lt;b&gt;:RentBicycleUI&lt;/b&gt;" style="html=1;whiteSpace=wrap;" parent="1" vertex="1">
          <mxGeometry x="244" y="1930" width="190" height="50" as="geometry" />
        </mxCell>
        <mxCell id="4MyRHnNNQHZquPPOq6WB-33" value="" style="line;strokeWidth=1;fillColor=none;align=left;verticalAlign=middle;spacingTop=-1;spacingLeft=3;spacingRight=3;rotatable=0;labelPosition=right;points=[];portConstraint=eastwest;strokeColor=inherit;" parent="1" vertex="1">
          <mxGeometry x="100" y="1951" width="140" height="8" as="geometry" />
        </mxCell>
        <mxCell id="4MyRHnNNQHZquPPOq6WB-34" value="" style="line;strokeWidth=1;fillColor=none;align=left;verticalAlign=middle;spacingTop=-1;spacingLeft=3;spacingRight=3;rotatable=0;labelPosition=right;points=[];portConstraint=eastwest;strokeColor=inherit;" parent="1" vertex="1">
          <mxGeometry x="434" y="1951.5" width="156" height="8" as="geometry" />
        </mxCell>
        <mxCell id="4MyRHnNNQHZquPPOq6WB-36" value="" style="endArrow=none;html=1;rounded=0;exitX=0.5;exitY=0;exitDx=0;exitDy=0;entryX=0.911;entryY=1.064;entryDx=0;entryDy=0;entryPerimeter=0;" parent="1" edge="1" target="4MyRHnNNQHZquPPOq6WB-31" source="4MyRHnNNQHZquPPOq6WB-39">
          <mxGeometry width="50" height="50" relative="1" as="geometry">
            <mxPoint x="912.16" y="2080" as="sourcePoint" />
            <mxPoint x="912.16" y="1980" as="targetPoint" />
          </mxGeometry>
        </mxCell>
        <mxCell id="4MyRHnNNQHZquPPOq6WB-38" value="&lt;b&gt;:회원&lt;/b&gt;" style="shape=umlActor;verticalLabelPosition=bottom;verticalAlign=top;html=1;" parent="1" vertex="1">
          <mxGeometry x="60" y="1920" width="30" height="60" as="geometry" />
        </mxCell>
        <mxCell id="4MyRHnNNQHZquPPOq6WB-39" value="&lt;b&gt;:Member&lt;/b&gt;" style="html=1;whiteSpace=wrap;" parent="1" vertex="1">
          <mxGeometry x="980" y="2070" width="135" height="50" as="geometry" />
        </mxCell>
        <mxCell id="4MyRHnNNQHZquPPOq6WB-41" value="&lt;b&gt;1. selectBicycle()&lt;/b&gt;" style="html=1;verticalAlign=bottom;endArrow=block;curved=0;rounded=0;" parent="1" edge="1">
          <mxGeometry y="10" width="80" relative="1" as="geometry">
            <mxPoint x="130" y="1939" as="sourcePoint" />
            <mxPoint x="210" y="1939" as="targetPoint" />
            <mxPoint as="offset" />
          </mxGeometry>
        </mxCell>
        <mxCell id="4MyRHnNNQHZquPPOq6WB-42" value="&lt;b&gt;1.1 rentBicycle()&lt;/b&gt;" style="html=1;verticalAlign=bottom;endArrow=block;curved=0;rounded=0;" parent="1" edge="1">
          <mxGeometry x="-0.05" y="10" width="80" relative="1" as="geometry">
            <mxPoint x="472" y="1939" as="sourcePoint" />
            <mxPoint x="552" y="1939" as="targetPoint" />
            <mxPoint as="offset" />
          </mxGeometry>
        </mxCell>
        <mxCell id="4MyRHnNNQHZquPPOq6WB-43" value="&lt;b&gt;1.1.3: addRentedBicycles()&lt;/b&gt;" style="html=1;verticalAlign=bottom;endArrow=block;curved=0;rounded=0;" parent="1" edge="1">
          <mxGeometry x="1" y="73" width="80" relative="1" as="geometry">
            <mxPoint x="890" y="2000" as="sourcePoint" />
            <mxPoint x="970" y="2030" as="targetPoint" />
            <mxPoint x="40" y="46" as="offset" />
          </mxGeometry>
        </mxCell>
        <mxCell id="KVHF5Dy5_9hEab3SbXI--2" value="&lt;b&gt;:Member&lt;/b&gt;" style="html=1;whiteSpace=wrap;" parent="1" vertex="1">
          <mxGeometry x="580" y="1703.5" width="135" height="50" as="geometry" />
        </mxCell>
        <mxCell id="KVHF5Dy5_9hEab3SbXI--3" value="" style="endArrow=none;html=1;rounded=0;exitX=0.57;exitY=-0.027;exitDx=0;exitDy=0;exitPerimeter=0;entryX=0.5;entryY=1;entryDx=0;entryDy=0;" parent="1" source="KVHF5Dy5_9hEab3SbXI--2" edge="1" target="nvlYyYwGG8XTySucCO5U-39">
          <mxGeometry width="50" height="50" relative="1" as="geometry">
            <mxPoint x="890" y="1703" as="sourcePoint" />
            <mxPoint x="890" y="1604" as="targetPoint" />
          </mxGeometry>
        </mxCell>
        <mxCell id="KVHF5Dy5_9hEab3SbXI--4" value="&lt;b&gt;2: listRentedBicycles()&lt;/b&gt;" style="html=1;verticalAlign=bottom;endArrow=block;curved=0;rounded=0;" parent="1" edge="1">
          <mxGeometry x="0.7923" y="81" width="80" relative="1" as="geometry">
            <mxPoint x="652" y="1644" as="sourcePoint" />
            <mxPoint x="662" y="1694" as="targetPoint" />
            <mxPoint as="offset" />
          </mxGeometry>
        </mxCell>
        <mxCell id="KVHF5Dy5_9hEab3SbXI--6" value="&lt;b&gt;members:RegisteredMember&lt;/b&gt;" style="html=1;whiteSpace=wrap;" parent="1" vertex="1">
          <mxGeometry x="517.5" y="2080" width="235" height="50" as="geometry" />
        </mxCell>
        <mxCell id="KVHF5Dy5_9hEab3SbXI--7" value="" style="endArrow=none;html=1;rounded=0;exitX=0.57;exitY=-0.027;exitDx=0;exitDy=0;exitPerimeter=0;entryX=0.5;entryY=1;entryDx=0;entryDy=0;" parent="1" source="KVHF5Dy5_9hEab3SbXI--6" edge="1" target="4MyRHnNNQHZquPPOq6WB-31">
          <mxGeometry width="50" height="50" relative="1" as="geometry">
            <mxPoint x="860" y="2080" as="sourcePoint" />
            <mxPoint x="860" y="1981" as="targetPoint" />
          </mxGeometry>
        </mxCell>
        <mxCell id="KVHF5Dy5_9hEab3SbXI--8" value="&lt;b&gt;1.1.2: getLoggedInMember()&lt;/b&gt;" style="html=1;verticalAlign=bottom;endArrow=block;curved=0;rounded=0;" parent="1" edge="1">
          <mxGeometry x="-0.5256" y="103" width="80" relative="1" as="geometry">
            <mxPoint x="689" y="2014" as="sourcePoint" />
            <mxPoint x="675" y="2063" as="targetPoint" />
            <mxPoint as="offset" />
          </mxGeometry>
        </mxCell>
        <mxCell id="CLofnSKexCBnrSgRC7de-2" value="&lt;b&gt;4: startInterface()&lt;/b&gt;" style="html=1;verticalAlign=bottom;endArrow=block;curved=0;rounded=0;" parent="1" edge="1">
          <mxGeometry y="30" width="80" relative="1" as="geometry">
            <mxPoint x="490" y="841" as="sourcePoint" />
            <mxPoint x="410" y="841" as="targetPoint" />
            <mxPoint as="offset" />
          </mxGeometry>
        </mxCell>
        <mxCell id="CLofnSKexCBnrSgRC7de-3" value="" style="endArrow=none;html=1;rounded=0;exitX=0.381;exitY=0.046;exitDx=0;exitDy=0;exitPerimeter=0;" parent="1" edge="1" source="CLofnSKexCBnrSgRC7de-5">
          <mxGeometry width="50" height="50" relative="1" as="geometry">
            <mxPoint x="587.08" y="590" as="sourcePoint" />
            <mxPoint x="587.08" y="520" as="targetPoint" />
          </mxGeometry>
        </mxCell>
        <mxCell id="CLofnSKexCBnrSgRC7de-4" value="&lt;b&gt;1.1.2: login()&lt;/b&gt;" style="html=1;verticalAlign=bottom;endArrow=block;curved=0;rounded=0;" parent="1" edge="1">
          <mxGeometry x="1" y="44" width="80" relative="1" as="geometry">
            <mxPoint x="642" y="550" as="sourcePoint" />
            <mxPoint x="667.5" y="590" as="targetPoint" />
            <mxPoint x="6" y="14" as="offset" />
          </mxGeometry>
        </mxCell>
        <mxCell id="CLofnSKexCBnrSgRC7de-5" value="&lt;b&gt;:Member&lt;/b&gt;" style="html=1;whiteSpace=wrap;" parent="1" vertex="1">
          <mxGeometry x="607.5" y="633.75" width="135" height="42.5" as="geometry" />
        </mxCell>
        <mxCell id="CLofnSKexCBnrSgRC7de-7" value="" style="endArrow=none;html=1;rounded=0;" parent="1" edge="1" source="CLofnSKexCBnrSgRC7de-9">
          <mxGeometry width="50" height="50" relative="1" as="geometry">
            <mxPoint x="580" y="920" as="sourcePoint" />
            <mxPoint x="577.08" y="851" as="targetPoint" />
          </mxGeometry>
        </mxCell>
        <mxCell id="CLofnSKexCBnrSgRC7de-8" value="&lt;b&gt;2:&amp;nbsp; logout()&lt;/b&gt;&lt;div&gt;&lt;b&gt;3: getMemberDetail()&lt;/b&gt;&lt;/div&gt;" style="html=1;verticalAlign=bottom;endArrow=block;curved=0;rounded=0;align=left;" parent="1" edge="1">
          <mxGeometry x="0.9385" y="7" width="80" relative="1" as="geometry">
            <mxPoint x="625.5" y="880" as="sourcePoint" />
            <mxPoint x="655.5" y="925" as="targetPoint" />
            <mxPoint y="1" as="offset" />
          </mxGeometry>
        </mxCell>
        <mxCell id="CLofnSKexCBnrSgRC7de-9" value="&lt;b&gt;:Member&lt;/b&gt;" style="html=1;whiteSpace=wrap;" parent="1" vertex="1">
          <mxGeometry x="600" y="964.75" width="135" height="42.5" as="geometry" />
        </mxCell>
        <mxCell id="kKvPtTwiiA1jm8snr2tL-1" value="&lt;b&gt;members:RegisteredMember&lt;/b&gt;" style="html=1;whiteSpace=wrap;" vertex="1" parent="1">
          <mxGeometry x="300" y="310" width="240" height="50" as="geometry" />
        </mxCell>
        <mxCell id="kKvPtTwiiA1jm8snr2tL-2" value="&lt;b&gt;1.1.1: addMember()&lt;/b&gt;" style="html=1;verticalAlign=bottom;endArrow=block;curved=0;rounded=0;" edge="1" parent="1">
          <mxGeometry x="1" y="-51" width="80" relative="1" as="geometry">
            <mxPoint x="484.5" y="250" as="sourcePoint" />
            <mxPoint x="440" y="280" as="targetPoint" />
            <mxPoint x="-21" y="32" as="offset" />
          </mxGeometry>
        </mxCell>
        <mxCell id="kKvPtTwiiA1jm8snr2tL-3" value="&lt;b&gt;1.1.1.1:&amp;nbsp;&lt;/b&gt;&lt;b&gt;Member()&lt;/b&gt;" style="html=1;verticalAlign=bottom;endArrow=block;curved=0;rounded=0;" edge="1" parent="1">
          <mxGeometry y="10" width="80" relative="1" as="geometry">
            <mxPoint x="557.5" y="309" as="sourcePoint" />
            <mxPoint x="637.5" y="309" as="targetPoint" />
            <mxPoint as="offset" />
          </mxGeometry>
        </mxCell>
        <mxCell id="kKvPtTwiiA1jm8snr2tL-4" value="" style="line;strokeWidth=1;fillColor=none;align=left;verticalAlign=middle;spacingTop=-1;spacingLeft=3;spacingRight=3;rotatable=0;labelPosition=right;points=[];portConstraint=eastwest;strokeColor=inherit;" vertex="1" parent="1">
          <mxGeometry x="540" y="331" width="120" height="8" as="geometry" />
        </mxCell>
        <mxCell id="kKvPtTwiiA1jm8snr2tL-6" value="" style="endArrow=none;html=1;rounded=0;exitX=0.5;exitY=0;exitDx=0;exitDy=0;" edge="1" parent="1" source="kKvPtTwiiA1jm8snr2tL-7">
          <mxGeometry width="50" height="50" relative="1" as="geometry">
            <mxPoint x="552.5" y="610" as="sourcePoint" />
            <mxPoint x="552.5" y="520" as="targetPoint" />
          </mxGeometry>
        </mxCell>
        <mxCell id="kKvPtTwiiA1jm8snr2tL-7" value="&lt;b&gt;members:RegisteredMember&lt;/b&gt;" style="html=1;whiteSpace=wrap;" vertex="1" parent="1">
          <mxGeometry x="310" y="630" width="217.5" height="50" as="geometry" />
        </mxCell>
        <mxCell id="kKvPtTwiiA1jm8snr2tL-8" value="&lt;b&gt;1.1.1: findMember()&lt;/b&gt;" style="html=1;verticalAlign=bottom;endArrow=block;curved=0;rounded=0;" edge="1" parent="1">
          <mxGeometry x="1" y="-54" width="80" relative="1" as="geometry">
            <mxPoint x="492.5" y="551" as="sourcePoint" />
            <mxPoint x="440" y="590" as="targetPoint" />
            <mxPoint x="-18" y="24" as="offset" />
          </mxGeometry>
        </mxCell>
        <mxCell id="kKvPtTwiiA1jm8snr2tL-9" value="" style="endArrow=none;html=1;rounded=0;exitX=0.5;exitY=0;exitDx=0;exitDy=0;" edge="1" parent="1" source="kKvPtTwiiA1jm8snr2tL-10">
          <mxGeometry width="50" height="50" relative="1" as="geometry">
            <mxPoint x="552.5" y="941" as="sourcePoint" />
            <mxPoint x="552.5" y="851" as="targetPoint" />
          </mxGeometry>
        </mxCell>
        <mxCell id="kKvPtTwiiA1jm8snr2tL-10" value="&lt;b&gt;members:RegisteredMember&lt;/b&gt;" style="html=1;whiteSpace=wrap;" vertex="1" parent="1">
          <mxGeometry x="300" y="961" width="227.5" height="50" as="geometry" />
        </mxCell>
        <mxCell id="kKvPtTwiiA1jm8snr2tL-11" value="&lt;b&gt;1: getLoggedInMember()&lt;/b&gt;" style="html=1;verticalAlign=bottom;endArrow=block;curved=0;rounded=0;" edge="1" parent="1">
          <mxGeometry x="1" y="-73" width="80" relative="1" as="geometry">
            <mxPoint x="492.5" y="882" as="sourcePoint" />
            <mxPoint x="430" y="930" as="targetPoint" />
            <mxPoint x="-25" y="38" as="offset" />
          </mxGeometry>
        </mxCell>
        <mxCell id="kKvPtTwiiA1jm8snr2tL-12" value="" style="endArrow=none;html=1;rounded=0;exitX=0.5;exitY=0;exitDx=0;exitDy=0;entryX=0.25;entryY=1;entryDx=0;entryDy=0;" edge="1" parent="1" source="kKvPtTwiiA1jm8snr2tL-13" target="nvlYyYwGG8XTySucCO5U-27">
          <mxGeometry width="50" height="50" relative="1" as="geometry">
            <mxPoint x="490" y="1330" as="sourcePoint" />
            <mxPoint x="490" y="1240" as="targetPoint" />
          </mxGeometry>
        </mxCell>
        <mxCell id="kKvPtTwiiA1jm8snr2tL-13" value="&lt;b&gt;bicycles:RegisteredBicycle&lt;/b&gt;" style="html=1;whiteSpace=wrap;" vertex="1" parent="1">
          <mxGeometry x="260" y="1350" width="205" height="50" as="geometry" />
        </mxCell>
        <mxCell id="kKvPtTwiiA1jm8snr2tL-14" value="&lt;b&gt;1.1.1: addBicycle()&lt;/b&gt;" style="html=1;verticalAlign=bottom;endArrow=block;curved=0;rounded=0;" edge="1" parent="1">
          <mxGeometry x="1" y="-41" width="80" relative="1" as="geometry">
            <mxPoint x="460" y="1260" as="sourcePoint" />
            <mxPoint x="395" y="1311" as="targetPoint" />
            <mxPoint x="-9" y="11" as="offset" />
          </mxGeometry>
        </mxCell>
        <mxCell id="kKvPtTwiiA1jm8snr2tL-15" value="&lt;b&gt;bicycles:RegisteredBicycle&lt;/b&gt;" style="html=1;whiteSpace=wrap;" vertex="1" parent="1">
          <mxGeometry x="190" y="2080" width="200" height="50" as="geometry" />
        </mxCell>
        <mxCell id="kKvPtTwiiA1jm8snr2tL-16" value="" style="endArrow=none;html=1;rounded=0;exitX=0.57;exitY=-0.027;exitDx=0;exitDy=0;exitPerimeter=0;entryX=0;entryY=1;entryDx=0;entryDy=0;" edge="1" parent="1" source="kKvPtTwiiA1jm8snr2tL-15" target="4MyRHnNNQHZquPPOq6WB-31">
          <mxGeometry width="50" height="50" relative="1" as="geometry">
            <mxPoint x="490" y="2088" as="sourcePoint" />
            <mxPoint x="490" y="1989" as="targetPoint" />
          </mxGeometry>
        </mxCell>
        <mxCell id="kKvPtTwiiA1jm8snr2tL-17" value="&lt;b&gt;1.1.1: findBicycle()&lt;/b&gt;" style="html=1;verticalAlign=bottom;endArrow=block;curved=0;rounded=0;" edge="1" parent="1">
          <mxGeometry x="1" y="-28" width="80" relative="1" as="geometry">
            <mxPoint x="430" y="2020" as="sourcePoint" />
            <mxPoint x="330" y="2059" as="targetPoint" />
            <mxPoint x="-8" y="5" as="offset" />
          </mxGeometry>
        </mxCell>
        <mxCell id="kKvPtTwiiA1jm8snr2tL-18" value="&lt;b&gt;members:RegisteredMember&lt;/b&gt;" style="html=1;whiteSpace=wrap;" vertex="1" parent="1">
          <mxGeometry x="320" y="1703.5" width="230" height="50" as="geometry" />
        </mxCell>
        <mxCell id="kKvPtTwiiA1jm8snr2tL-19" value="" style="endArrow=none;html=1;rounded=0;exitX=0.57;exitY=-0.027;exitDx=0;exitDy=0;exitPerimeter=0;" edge="1" parent="1" source="kKvPtTwiiA1jm8snr2tL-18">
          <mxGeometry width="50" height="50" relative="1" as="geometry">
            <mxPoint x="600" y="1703.5" as="sourcePoint" />
            <mxPoint x="600" y="1604.5" as="targetPoint" />
          </mxGeometry>
        </mxCell>
        <mxCell id="kKvPtTwiiA1jm8snr2tL-20" value="&lt;b&gt;1: getLoggedInMember()&lt;/b&gt;" style="html=1;verticalAlign=bottom;endArrow=block;curved=0;rounded=0;" edge="1" parent="1">
          <mxGeometry x="1" y="-71" width="80" relative="1" as="geometry">
            <mxPoint x="505" y="1647.5" as="sourcePoint" />
            <mxPoint x="460" y="1680" as="targetPoint" />
            <mxPoint x="-28" y="47" as="offset" />
          </mxGeometry>
        </mxCell>
      </root>
    </mxGraphModel>
  </diagram>
</mxfile>
